<?xml version="1.0" standalone="no"?>
<!DOCTYPE svg PUBLIC "-//W3C//DTD SVG 20010904//EN"
 "http://www.w3.org/TR/2001/REC-SVG-20010904/DTD/svg10.dtd">
<svg version="1.0" xmlns="http://www.w3.org/2000/svg"
 width="1280.000000pt" height="1024.000000pt" viewBox="0 0 1280.000000 1024.000000"
 preserveAspectRatio="xMidYMid meet">
<g transform="translate(0.000000,1024.000000) scale(0.100000,-0.100000)"
fill="#000000" stroke="none">
<path d="M7185 9703 c-269 -8 -570 -55 -1055 -162 -173 -38 -377 -81 -454 -96
-513 -97 -1071 -295 -1415 -503 -425 -255 -788 -687 -991 -1179 l-49 -118 -65
-3 -66 -3 -51 -101 c-56 -112 -182 -411 -310 -735 l-83 -212 -92 -36 c-190
-74 -347 -188 -475 -347 -154 -192 -301 -430 -403 -653 -168 -369 -272 -681
-283 -850 -13 -211 67 -345 226 -375 30 -6 57 -13 60 -16 3 -3 9 -50 12 -105
8 -113 10 -117 146 -316 100 -146 113 -175 113 -252 0 -236 96 -628 215 -880
44 -95 58 -137 75 -231 45 -257 72 -315 192 -405 94 -71 690 -345 830 -382 92
-24 250 -22 363 6 385 94 802 480 1117 1036 254 448 436 1016 504 1575 27 219
25 627 -4 815 -77 499 -241 815 -518 1001 -96 65 -298 158 -468 217 -116 39
-126 41 -242 42 l-122 0 -54 51 c-30 28 -69 59 -86 68 -18 9 -32 21 -32 26 0
5 76 161 168 347 170 342 262 541 262 568 0 8 -31 31 -71 50 -81 41 -80 33
-18 157 121 241 339 549 496 699 452 431 1390 836 2144 924 98 12 379 -38 627
-111 185 -54 323 -109 517 -204 313 -154 533 -307 746 -520 235 -233 416 -486
565 -785 187 -378 280 -784 272 -1185 l-3 -155 -65 -8 c-35 -4 -66 -10 -68
-12 -3 -2 1 -91 7 -197 24 -405 41 -902 32 -911 -6 -6 -31 3 -68 25 -32 20
-96 58 -142 86 -98 60 -156 83 -306 122 -299 77 -486 60 -739 -67 -449 -225
-853 -642 -1104 -1141 -161 -318 -249 -593 -341 -1064 -56 -283 -73 -450 -75
-698 -2 -401 46 -591 261 -1045 47 -99 112 -218 144 -265 77 -113 214 -268
270 -306 52 -34 209 -105 369 -166 58 -22 119 -46 135 -54 61 -28 173 -46 333
-51 338 -12 505 48 813 288 52 41 108 80 125 86 16 7 126 14 254 17 248 6 347
21 481 73 103 40 179 92 275 188 184 185 317 458 388 793 21 99 34 137 66 189
110 183 233 629 261 943 34 393 -51 1039 -166 1259 -52 98 -140 198 -236 265
-19 13 -21 22 -16 63 71 648 87 850 94 1175 7 306 9 297 -95 327 -37 11 -80
22 -95 26 -37 7 -42 23 -67 200 -57 402 -179 900 -307 1254 -172 476 -361 799
-621 1057 -462 460 -948 739 -1467 843 -155 31 -392 49 -570 44z m-3875 -3412
c29 -8 21 -15 -40 -31 -115 -30 -230 -108 -439 -299 -74 -67 -147 -129 -162
-136 -36 -19 -128 -32 -281 -41 -78 -4 -128 -3 -128 3 0 16 73 130 114 179
111 132 411 288 621 323 61 10 280 12 315 2z"/>
</g>
</svg>
